<?xml version="1.0" standalone="no"?>
<!DOCTYPE svg PUBLIC "-//W3C//DTD SVG 20010904//EN"
 "http://www.w3.org/TR/2001/REC-SVG-20010904/DTD/svg10.dtd">
<svg version="1.0" xmlns="http://www.w3.org/2000/svg"
 width="300.000000pt" height="300.000000pt" viewBox="0 0 300.000000 300.000000"
 preserveAspectRatio="xMidYMid meet">
<metadata>
Created by potrace 1.11, written by Peter Selinger 2001-2013
</metadata>
<g transform="translate(0.000000,300.000000) scale(0.100000,-0.100000)"
fill="#000000" stroke="none">
<path d="M360 2247 c-51 -18 -54 -52 -6 -72 34 -14 36 -18 31 -53 -2 -20 -7
-73 -9 -117 -14 -210 -48 -665 -66 -888 -12 -136 -18 -252 -15 -257 4 -6 17
-10 30 -10 21 0 24 5 29 58 10 101 26 293 36 437 63 897 54 810 91 826 44 18
55 45 26 64 -33 21 -105 27 -147 12z"/>
<path d="M633 2028 c-35 -6 -63 -14 -63 -18 0 -5 11 -55 25 -112 14 -57 25
-123 25 -148 0 -68 8 -75 77 -64 92 13 159 8 288 -26 75 -19 158 -33 223 -37
l102 -6 0 24 c0 33 -27 185 -41 234 -15 53 -28 67 -55 61 -40 -10 -185 15
-285 49 -54 18 -120 36 -146 40 -26 3 -57 7 -68 9 -11 2 -48 -1 -82 -6z m272
-139 c21 -46 37 -46 46 0 8 40 25 59 39 45 9 -9 -12 -152 -26 -175 -12 -21
-36 -6 -56 36 -12 25 -25 45 -29 45 -4 0 -12 -19 -16 -42 -6 -28 -15 -44 -26
-46 -21 -4 -22 19 -6 104 19 95 42 105 74 33z"/>
<path d="M1590 1983 c-72 -7 -262 -34 -277 -40 -10 -4 -13 -14 -9 -32 4 -14
17 -84 30 -156 l23 -130 149 -4 c303 -8 365 -6 489 18 150 28 361 39 436 21
63 -15 135 -49 199 -94 73 -52 76 -52 42 -6 -61 83 -155 182 -214 225 -71 52
-111 62 -275 69 -135 6 -250 32 -317 71 -23 13 -69 33 -103 44 -59 20 -91 22
-173 14z m30 -83 c41 -41 16 -99 -47 -109 -31 -5 -38 -11 -45 -39 -8 -30 -30
-43 -42 -23 -5 8 18 148 29 179 7 20 82 15 105 -8z"/>
<path d="M1557 1874 c-15 -15 -7 -45 11 -42 9 2 17 12 17 22 0 20 -16 31 -28
20z"/>
<path d="M696 1642 l-70 -17 -17 -85 c-15 -80 -60 -203 -80 -224 -16 -17 -10
-36 12 -36 11 0 79 -20 151 -45 154 -53 216 -57 393 -26 61 11 135 22 166 26
l56 6 7 62 c15 127 18 235 7 254 -9 17 -25 21 -118 26 -72 4 -145 16 -218 36
-145 39 -204 44 -289 23z m218 -163 l13 -31 22 31 c21 29 61 43 61 20 0 -5
-18 -36 -39 -68 -22 -31 -41 -68 -43 -82 -2 -16 -10 -25 -26 -27 -21 -3 -23
-1 -17 31 6 29 0 66 -21 140 -4 12 0 17 16 17 14 0 25 -10 34 -31z"/>
<path d="M2160 1624 c-60 -8 -223 -35 -270 -46 -54 -12 -194 -12 -304 1 -45 5
-112 6 -149 3 l-68 -7 -5 -140 c-3 -77 -6 -151 -7 -165 -2 -25 -1 -25 68 -24
81 1 272 45 480 110 323 103 518 141 670 131 l90 -6 -40 35 c-22 19 -73 52
-114 72 -71 35 -77 36 -195 38 -66 1 -137 0 -156 -2z m-521 -119 c42 -21 56
-65 21 -65 -11 0 -20 4 -20 10 0 5 -9 14 -20 20 -37 20 -88 -28 -75 -70 8 -25
66 -28 85 -5 14 17 50 21 50 6 0 -6 -11 -23 -24 -38 -20 -23 -32 -28 -71 -28
-37 0 -51 5 -66 24 -36 45 -17 124 36 147 39 17 50 17 84 -1z"/>
</g>
</svg>
