<?xml version="1.0" standalone="no"?>
<!DOCTYPE svg PUBLIC "-//W3C//DTD SVG 20010904//EN"
 "http://www.w3.org/TR/2001/REC-SVG-20010904/DTD/svg10.dtd">
<svg version="1.0" xmlns="http://www.w3.org/2000/svg"
 width="169.000000pt" height="169.000000pt" viewBox="0 0 169.000000 169.000000"
 preserveAspectRatio="xMidYMid meet">
<metadata>
Created by potrace 1.11, written by Peter Selinger 2001-2013
</metadata>
<g transform="translate(0.000000,169.000000) scale(0.100000,-0.100000)"
fill="#000000" stroke="none">
<path d="M620 1457 c0 -3 -11 -56 -24 -119 -13 -62 -32 -174 -41 -248 -15
-118 -34 -200 -60 -262 -6 -16 -1 -18 49 -18 31 0 56 -3 56 -7 0 -4 -10 -37
-22 -75 -22 -68 -22 -68 -59 -68 -35 0 -154 21 -209 36 -41 12 67 -104 134
-145 68 -41 122 -48 199 -27 31 9 81 23 111 31 30 8 80 17 112 19 33 2 62 4
66 5 4 0 40 31 80 67 41 37 104 82 146 102 70 35 100 62 45 41 -168 -65 -321
-108 -342 -94 -7 4 -7 12 0 24 8 12 22 16 47 14 43 -3 31 13 -15 20 -26 4 -35
0 -48 -19 -16 -24 -35 -32 -35 -14 0 15 43 51 56 46 6 -2 17 1 23 7 7 7 11 7
11 1 0 -6 14 -11 30 -12 31 -1 41 12 16 21 -49 19 -146 -22 -146 -61 0 -22
-32 -43 -47 -30 -10 8 -9 15 3 33 10 16 13 29 7 40 -8 14 -13 13 -44 -8 -19
-12 -34 -29 -34 -37 0 -24 -50 -60 -84 -60 -17 0 -31 2 -31 4 0 3 13 39 29 80
16 41 26 77 23 80 -3 3 -29 6 -58 6 l-53 0 24 64 c13 35 35 139 50 237 31 207
52 322 54 293 1 -29 39 -119 70 -170 15 -23 53 -72 86 -109 164 -185 233 -270
222 -277 -18 -11 -139 -29 -240 -37 -58 -4 -92 -10 -95 -18 -9 -31 268 -4 337
32 17 8 31 24 31 33 0 18 -109 148 -241 288 -75 81 -112 139 -144 227 -13 34
-28 63 -34 65 -6 2 -11 1 -11 -1z m130 -705 c0 -14 -39 -46 -47 -39 -3 4 2 16
12 27 19 21 35 26 35 12z m295 -51 c-103 -94 -109 -98 -186 -104 -41 -3 -112
-18 -159 -33 -152 -49 -228 -34 -328 69 l-44 45 54 -15 c126 -35 423 -22 589
26 77 22 86 24 74 12z m-310 -21 c3 -5 -2 -10 -12 -10 -10 0 -29 -3 -43 -6
l-25 -5 25 15 c29 18 46 20 55 6z m108 3 c-7 -2 -21 -2 -30 0 -10 3 -4 5 12 5
17 0 24 -2 18 -5z"/>
<path d="M91 654 c-12 -15 -21 -32 -21 -38 0 -21 24 -45 50 -51 30 -7 66 25
56 50 -5 13 -9 12 -27 -6 -20 -20 -22 -20 -38 -4 -15 15 -14 18 8 36 26 21 62
25 92 9 10 -6 19 -7 19 -2 0 14 -48 32 -85 32 -24 0 -39 -7 -54 -26z"/>
<path d="M1170 654 c-41 -13 -86 -22 -98 -19 -15 4 -21 2 -17 -5 9 -15 42 -12
115 10 82 25 115 25 140 0 24 -24 38 -25 110 -6 30 8 59 11 65 6 11 -9 47 -13
123 -11 41 1 52 4 52 17 0 14 -10 15 -71 9 -51 -5 -78 -4 -95 6 -21 11 -36 10
-90 -3 -61 -15 -66 -14 -88 3 -31 25 -55 23 -146 -7z"/>
<path d="M235 608 c-27 -15 -35 -28 -35 -59 0 -48 62 -78 90 -44 16 19 3 40
-15 25 -10 -8 -19 -8 -34 0 -26 13 -26 22 -3 43 25 23 54 21 86 -4 32 -25 35
-11 4 19 -29 26 -68 35 -93 20z"/>
<path d="M1135 580 c-38 -10 -92 -19 -120 -20 -36 -1 -44 -4 -30 -9 22 -9 48
-7 174 15 78 14 84 14 96 -3 11 -14 28 -18 82 -18 37 0 80 -4 96 -9 17 -5 27
-4 27 2 0 18 -70 34 -127 30 -45 -4 -56 -2 -64 14 -12 22 -40 22 -134 -2z"/>
<path d="M375 542 c-47 -10 -61 -55 -27 -85 23 -21 62 -22 62 -2 0 8 -9 15
-19 15 -26 0 -36 17 -21 35 17 21 43 19 74 -6 32 -25 35 -11 4 18 -28 24 -46
31 -73 25z"/>
</g>
</svg>
