<?xml version="1.0" standalone="no"?>
<!DOCTYPE svg PUBLIC "-//W3C//DTD SVG 20010904//EN"
 "http://www.w3.org/TR/2001/REC-SVG-20010904/DTD/svg10.dtd">
<svg version="1.0" xmlns="http://www.w3.org/2000/svg"
 width="300.000000pt" height="300.000000pt" viewBox="0 0 300.000000 300.000000"
 preserveAspectRatio="xMidYMid meet">
<metadata>
Created by potrace 1.11, written by Peter Selinger 2001-2013
</metadata>
<g transform="translate(0.000000,300.000000) scale(0.100000,-0.100000)"
fill="#000000" stroke="none">
<path d="M530 2137 c-58 -20 -46 -59 22 -72 11 -3 23 -7 27 -11 3 -4 -2 -4
-11 -1 -23 8 -24 1 -38 -203 -6 -91 -22 -311 -35 -490 -35 -463 -35 -414 -2
-418 24 -3 27 0 27 25 0 15 7 116 15 223 8 107 19 265 25 350 5 85 14 205 20
265 5 61 12 144 14 185 3 68 5 75 26 80 33 8 49 36 30 54 -22 20 -80 27 -120
13z"/>
<path d="M740 1944 c-8 -3 -20 -7 -27 -9 -8 -3 -6 -23 7 -74 10 -38 22 -101
26 -140 8 -81 6 -80 106 -60 50 10 67 8 183 -21 71 -17 169 -34 218 -37 l89
-6 -6 29 c-3 16 -10 59 -16 96 -6 37 -16 84 -23 105 l-12 38 -90 7 c-94 7
-121 13 -220 49 -59 21 -203 35 -235 23z m253 -115 l25 -41 9 39 c5 24 15 39
27 41 16 4 17 -1 11 -48 -11 -79 -20 -105 -38 -108 -11 -2 -23 9 -34 32 -21
45 -29 45 -37 1 -5 -26 -12 -35 -26 -35 -11 0 -20 1 -20 3 0 9 22 124 26 140
9 29 31 19 57 -24z"/>
<path d="M1575 1909 c-201 -27 -236 -33 -241 -40 -3 -5 0 -27 6 -49 6 -22 17
-80 24 -128 l12 -87 80 0 c43 0 131 -4 194 -8 98 -8 132 -6 230 12 227 41 378
44 470 10 41 -15 126 -64 147 -84 37 -38 20 1 -22 50 -70 81 -150 155 -194
178 -42 23 -66 28 -192 36 -161 11 -195 19 -289 66 -36 18 -81 36 -100 39 -19
4 -42 9 -50 10 -8 2 -42 0 -75 -5z m23 -65 c46 -32 16 -104 -44 -104 -15 0
-24 -8 -28 -25 -4 -16 -13 -25 -26 -25 -11 0 -20 2 -20 4 0 13 31 150 36 157
8 14 58 10 82 -7z"/>
<path d="M1547 1814 c-14 -14 -7 -35 11 -32 9 2 17 10 17 17 0 16 -18 25 -28
15z"/>
<path d="M810 1618 l-56 -11 -16 -79 c-9 -44 -31 -109 -48 -145 -17 -36 -28
-68 -25 -72 3 -3 18 -7 33 -8 15 -2 72 -19 128 -38 120 -41 172 -44 329 -15
60 11 123 20 141 20 21 0 34 6 39 18 3 9 9 74 12 145 l6 127 -44 0 c-79 1
-153 11 -248 36 -115 30 -179 35 -251 22z m186 -133 c3 -14 8 -25 11 -25 3 0
14 11 25 25 17 21 58 35 58 20 0 -3 -15 -29 -34 -58 -19 -28 -38 -64 -42 -79
-4 -19 -13 -28 -26 -28 -17 0 -19 5 -15 27 3 15 -1 51 -9 80 -17 67 -18 63 6
63 13 0 22 -9 26 -25z"/>
<path d="M2080 1600 c-47 -5 -142 -19 -213 -31 -115 -20 -138 -21 -240 -11
-61 7 -141 9 -177 6 l-65 -7 -3 -144 -3 -145 63 7 c77 8 266 55 408 100 270
86 382 109 532 109 59 0 104 4 101 9 -11 18 -128 87 -162 96 -60 16 -151 19
-241 11z m-442 -110 c12 -12 22 -27 22 -35 0 -20 -36 -19 -44 0 -7 19 -50 19
-66 1 -6 -8 -10 -25 -8 -38 4 -28 48 -37 68 -14 13 17 50 22 50 7 0 -24 -38
-53 -76 -58 -53 -7 -84 20 -84 72 0 72 87 113 138 65z"/>
</g>
</svg>
