<?xml version="1.0" standalone="no"?>
<!DOCTYPE svg PUBLIC "-//W3C//DTD SVG 20010904//EN"
 "http://www.w3.org/TR/2001/REC-SVG-20010904/DTD/svg10.dtd">
<svg version="1.0" xmlns="http://www.w3.org/2000/svg"
 width="142.000000pt" height="142.000000pt" viewBox="0 0 142.000000 142.000000"
 preserveAspectRatio="xMidYMid meet">
<metadata>
Created by potrace 1.11, written by Peter Selinger 2001-2013
</metadata>
<g transform="translate(0.000000,142.000000) scale(0.100000,-0.100000)"
fill="#000000" stroke="none">
<path d="M533 1396 c-145 -40 -293 -133 -368 -232 -16 -21 -34 -44 -40 -51
-21 -21 -84 -157 -101 -218 -9 -33 -18 -105 -19 -162 -6 -206 59 -375 199
-518 364 -370 988 -238 1171 248 34 91 37 107 40 230 3 89 -1 125 -20 197 -64
238 -231 414 -470 495 -112 38 -274 43 -392 11z"/>
</g>
</svg>
