<?xml version="1.0" standalone="no"?>
<!DOCTYPE svg PUBLIC "-//W3C//DTD SVG 20010904//EN"
 "http://www.w3.org/TR/2001/REC-SVG-20010904/DTD/svg10.dtd">
<svg version="1.0" xmlns="http://www.w3.org/2000/svg"
 width="300.000000pt" height="300.000000pt" viewBox="0 0 300.000000 300.000000"
 preserveAspectRatio="xMidYMid meet">
<metadata>
Created by potrace 1.11, written by Peter Selinger 2001-2013
</metadata>
<g transform="translate(0.000000,300.000000) scale(0.100000,-0.100000)"
fill="#000000" stroke="none">
<path d="M467 2278 l6 -93 351 -347 351 -348 -348 -344 -348 -343 3 -87 3 -86
389 372 c214 205 395 374 403 376 8 2 84 -65 169 -150 85 -84 156 -154 158
-155 3 -3 128 46 136 53 2 3 -77 85 -175 184 l-179 179 24 27 c14 15 105 106
202 202 97 97 175 179 172 183 -2 4 -34 17 -69 29 l-66 22 -180 -176 c-99 -97
-184 -176 -189 -176 -5 0 -152 138 -327 307 -470 455 -479 463 -486 463 -4 0
-4 -42 0 -92z"/>
<path d="M570 2352 c0 -8 688 -685 701 -690 13 -5 330 301 321 310 -5 5 -219
87 -478 183 -258 97 -486 182 -506 190 -21 8 -38 11 -38 7z m715 -348 c10 -38
12 -39 58 -42 26 -2 47 -6 47 -9 0 -3 -16 -20 -36 -37 -33 -29 -34 -33 -24
-63 7 -18 10 -40 8 -49 -2 -14 -8 -13 -37 11 -36 31 -31 31 -98 -13 -27 -17
-29 -9 -11 50 11 38 11 40 -20 65 -18 13 -32 28 -32 33 0 5 19 10 43 12 40 3
43 5 57 46 17 50 30 50 45 -4z"/>
<path d="M470 1932 c0 -355 13 -1053 20 -1050 4 2 146 139 316 305 l308 302
-313 308 c-173 169 -317 310 -322 311 -5 2 -9 -77 -9 -176z m270 -314 c11 -36
13 -38 56 -38 24 0 44 -4 44 -9 0 -5 -14 -21 -32 -36 -30 -26 -31 -27 -20 -73
6 -26 8 -49 6 -51 -2 -3 -19 6 -36 19 -17 13 -37 23 -43 23 -6 0 -26 -10 -43
-23 -37 -28 -47 -23 -32 14 17 46 12 71 -20 94 -41 31 -38 42 14 42 43 0 45 2
57 38 6 20 14 41 16 45 8 13 19 -4 33 -45z"/>
<path d="M1642 1687 c-105 -106 -191 -197 -191 -202 1 -6 79 -85 173 -177
l171 -166 445 169 c245 93 476 181 513 195 38 14 66 28 64 30 -5 5 -966 344
-975 344 -4 0 -94 -87 -200 -193z m168 -89 c8 -25 14 -28 55 -28 25 0 45 -4
45 -9 0 -5 -16 -22 -35 -38 -34 -26 -35 -30 -25 -60 20 -56 10 -67 -32 -37
l-37 26 -36 -27 c-42 -33 -52 -28 -36 16 17 48 14 62 -19 84 -44 29 -38 45 15
45 40 0 45 3 51 28 4 15 11 36 17 47 11 22 12 21 37 -47z m266 21 c15 -17 19
-38 20 -100 l2 -79 -37 5 c-71 12 -78 15 -89 40 -44 96 40 204 104 134z m135
11 c10 -6 19 -20 19 -30 0 -22 -20 -26 -37 -9 -23 23 -43 2 -43 -46 0 -52 19
-68 49 -41 24 22 31 20 31 -7 0 -53 -64 -65 -100 -19 -18 22 -21 36 -17 75 7
73 46 104 98 77z m78 -21 l19 -31 16 31 c9 17 21 31 26 31 20 0 20 -21 0 -59
-11 -22 -20 -55 -20 -73 0 -18 -4 -39 -9 -47 -14 -22 -31 -3 -31 35 0 19 -9
52 -20 74 -34 67 -18 100 19 39z m195 15 c9 -8 16 -22 16 -30 0 -17 -21 -19
-37 -3 -23 23 -43 2 -43 -46 0 -52 19 -68 49 -41 22 20 36 7 26 -24 -13 -41
-84 -37 -103 6 -41 88 33 198 92 138z"/>
<path d="M2000 1574 c-10 -26 -4 -70 11 -80 5 -3 9 0 9 5 0 6 9 11 20 11 15 0
20 7 20 29 0 16 -3 36 -6 45 -10 25 -43 19 -54 -10z"/>
<path d="M945 1005 c-275 -271 -314 -313 -280 -301 52 18 867 337 879 343 10
6 -254 273 -269 273 -5 -1 -154 -143 -330 -315z m349 204 c9 -46 24 -59 67
-59 22 0 39 -3 39 -7 0 -5 -14 -20 -32 -35 -32 -26 -32 -27 -21 -69 6 -24 9
-47 7 -51 -3 -5 -20 3 -38 17 -40 31 -42 31 -81 0 -18 -13 -35 -22 -37 -19 -3
2 0 25 5 50 11 45 10 47 -21 73 -18 14 -32 29 -32 34 0 4 17 7 39 7 43 0 56
11 67 55 13 56 27 57 38 4z"/>
</g>
</svg>
