<?xml version="1.0" standalone="no"?>
<!DOCTYPE svg PUBLIC "-//W3C//DTD SVG 20010904//EN"
 "http://www.w3.org/TR/2001/REC-SVG-20010904/DTD/svg10.dtd">
<svg version="1.0" xmlns="http://www.w3.org/2000/svg"
 width="367.000000pt" height="367.000000pt" viewBox="0 0 367.000000 367.000000"
 preserveAspectRatio="xMidYMid meet">
<metadata>
Created by potrace 1.11, written by Peter Selinger 2001-2013
</metadata>
<g transform="translate(0.000000,367.000000) scale(0.100000,-0.100000)"
fill="#000000" stroke="none">
<path d="M2286 3458 c-8 -13 -72 -174 -141 -358 -70 -184 -144 -380 -165 -435
-21 -55 -55 -145 -76 -200 -20 -55 -50 -134 -66 -175 -16 -41 -47 -122 -68
-180 -21 -58 -53 -141 -70 -185 -17 -44 -50 -130 -73 -192 -23 -62 -45 -109
-48 -105 -3 4 -21 48 -39 97 -35 95 -86 231 -125 330 -25 66 -43 112 -171 450
-47 127 -90 234 -94 238 -4 4 -11 2 -17 -5 -15 -19 -92 -293 -133 -476 -11
-45 -22 -86 -24 -91 -3 -4 -17 -73 -31 -152 -79 -444 -47 -883 95 -1309 55
-165 157 -397 184 -420 8 -6 43 -16 78 -21 58 -10 170 -29 443 -75 99 -17 357
-25 370 -12 4 4 -45 145 -110 315 -64 169 -129 342 -145 384 l-29 76 107 21
c59 12 132 24 162 28 95 10 118 21 146 70 78 133 201 469 233 634 6 30 17 87
25 125 35 166 45 472 25 712 -15 176 -44 319 -141 693 -27 107 -71 240 -79
240 -5 0 -15 -10 -23 -22z m4 -129 c0 -12 -4 -17 -11 -13 -8 4 -9 -1 -4 -17 7
-23 6 -23 -8 -5 -12 17 -13 22 -1 34 8 7 11 18 8 24 -4 7 -2 8 4 4 7 -4 12
-16 12 -27z m28 17 c-7 -8 -15 -12 -17 -11 -5 6 10 25 20 25 5 0 4 -6 -3 -14z
m-21 -68 c-3 -8 -6 -5 -6 6 -1 11 2 17 5 13 3 -3 4 -12 1 -19z m-9 -33 c-3 -3
-9 2 -12 12 -6 14 -5 15 5 6 7 -7 10 -15 7 -18z m-56 -47 c-6 -6 -12 -5 -17 3
-5 8 -4 10 3 5 8 -5 12 1 13 16 1 18 2 19 6 4 3 -10 0 -23 -5 -28z m144 -57
c0 -22 -3 -38 -6 -36 -8 5 -4 75 3 75 2 0 3 -18 3 -39z m18 -77 c-5 -19 -4
-25 5 -20 6 4 11 1 11 -8 0 -9 -6 -13 -14 -10 -11 4 -13 -4 -10 -38 l3 -43 -8
40 c-5 22 -7 44 -4 48 3 4 -1 15 -8 23 -6 8 -9 17 -5 21 3 3 6 0 6 -8 1 -10 3
-9 11 4 15 25 20 21 13 -9z m-197 -21 c1 -32 -1 -34 -8 -15 -7 18 -3 52 5 52
1 0 2 -17 3 -37z m-29 -9 c0 -17 -3 -22 -8 -13 -5 6 -6 18 -3 26 8 19 11 16
11 -13z m-1 -66 c-3 -8 -6 -5 -6 6 -1 11 2 17 5 13 3 -3 4 -12 1 -19z m200 0
c-3 -8 -6 -5 -6 6 -1 11 2 17 5 13 3 -3 4 -12 1 -19z m-247 -118 c0 -11 -2
-20 -4 -20 -2 0 -6 9 -9 20 -3 11 -1 20 4 20 5 0 9 -9 9 -20z m-27 -20 c-3
-11 -7 -20 -9 -20 -2 0 -4 9 -4 20 0 11 4 20 9 20 5 0 7 -9 4 -20z m20 -23 c3
-8 2 -20 -3 -26 -5 -9 -7 -4 -7 13 0 29 2 32 10 13z m-30 -49 c6 -4 8 -11 3
-15 -5 -4 -11 -2 -13 5 -3 6 -12 12 -21 13 -11 0 -12 2 -4 6 6 2 13 14 13 26
2 19 2 19 6 -3 3 -14 10 -28 16 -32z m364 20 c-3 -8 -6 -5 -6 6 -1 11 2 17 5
13 3 -3 4 -12 1 -19z m-332 -57 c-3 -6 -11 -11 -16 -11 -5 0 -4 6 3 14 14 16
24 13 13 -3z m346 -18 c-12 -20 -14 -14 -5 12 4 9 9 14 11 11 3 -2 0 -13 -6
-23z m-424 -65 c-3 -8 -6 -5 -6 6 -1 11 2 17 5 13 3 -3 4 -12 1 -19z m440 -20
c-3 -8 -6 -5 -6 6 -1 11 2 17 5 13 3 -3 4 -12 1 -19z m-17 2 c0 -5 -2 -10 -4
-10 -3 0 -8 5 -11 10 -3 6 -1 10 4 10 6 0 11 -4 11 -10z m-443 -32 c-3 -8 -6
-5 -6 6 -1 11 2 17 5 13 3 -3 4 -12 1 -19z m20 -30 c-3 -8 -6 -5 -6 6 -1 11 2
17 5 13 3 -3 4 -12 1 -19z m410 -15 c-3 -10 -5 -4 -5 12 0 17 2 24 5 18 2 -7
2 -21 0 -30z m24 0 c-12 -20 -14 -14 -5 12 4 9 9 14 11 11 3 -2 0 -13 -6 -23z
m16 -65 c-3 -7 -5 -2 -5 12 0 14 2 19 5 13 2 -7 2 -19 0 -25z m-531 -18 c0
-23 -3 -34 -7 -27 -4 7 -6 22 -4 33 2 10 4 22 4 27 1 4 2 7 4 7 2 0 3 -18 3
-40z m-31 -59 c-3 -6 -11 -11 -16 -11 -5 0 -4 6 3 14 14 16 24 13 13 -3z m22
-33 c-3 -8 -6 -5 -6 6 -1 11 2 17 5 13 3 -3 4 -12 1 -19z m-20 -25 c-3 -10 -5
-4 -5 12 0 17 2 24 5 18 2 -7 2 -21 0 -30z m-50 -65 c-3 -8 -6 -5 -6 6 -1 11
2 17 5 13 3 -3 4 -12 1 -19z m-9 -62 c-7 -8 -15 -12 -17 -11 -5 6 10 25 20 25
5 0 4 -6 -3 -14z m4 -38 c-7 -7 -12 -8 -12 -2 0 6 3 14 7 17 3 4 9 5 12 2 2
-3 -1 -11 -7 -17z m-25 -10 c-3 -8 -6 -5 -6 6 -1 11 2 17 5 13 3 -3 4 -12 1
-19z m-7 -32 c0 -2 -7 -7 -16 -10 -8 -3 -12 -2 -9 4 6 10 25 14 25 6z m650
-48 c0 12 4 22 10 22 19 0 -7 -43 -27 -45 -16 -1 -19 3 -15 23 l5 25 13 -24
13 -24 1 23z m-700 -139 c-15 -35 -30 -48 -23 -19 3 11 9 23 14 26 5 3 9 13 9
22 0 13 -2 13 -16 -4 -15 -19 -15 -19 -6 1 5 11 7 27 5 35 -3 8 3 5 12 -8 14
-20 15 -28 5 -53z m678 20 c-3 -8 -7 -3 -11 10 -4 17 -3 21 5 13 5 -5 8 -16 6
-23z m19 -21 c-3 -8 -6 -5 -6 6 -1 11 2 17 5 13 3 -3 4 -12 1 -19z m-30 -80
c-3 -8 -6 -5 -6 6 -1 11 2 17 5 13 3 -3 4 -12 1 -19z m-745 -74 c-6 -11 -11
-13 -16 -5 -4 6 -2 11 4 11 7 0 9 9 5 23 -5 19 -4 20 5 5 7 -12 8 -24 2 -34z
m750 -11 c-3 -16 -7 -22 -10 -15 -4 13 4 42 11 42 2 0 2 -12 -1 -27z m-756
-35 c4 -7 3 -8 -4 -4 -7 4 -12 1 -12 -9 0 -11 -5 -15 -15 -11 -8 3 -15 0 -15
-6 0 -6 -3 -9 -6 -5 -3 3 -1 14 5 24 8 14 11 15 11 3 0 -12 3 -11 11 3 12 20
15 21 25 5z m1 -50 c-3 -7 -5 -2 -5 12 0 14 2 19 5 13 2 -7 2 -19 0 -25z m700
-62 c-7 -14 -13 -23 -15 -21 -7 6 9 45 18 45 4 0 3 -11 -3 -24z m-780 -13 c-4
-3 -2 -12 4 -20 9 -9 8 -13 0 -13 -6 0 -11 2 -11 4 0 2 -3 11 -6 20 -4 10 -1
16 7 16 7 0 9 -3 6 -7z m750 -25 c-3 -7 -5 -2 -5 12 0 14 2 19 5 13 2 -7 2
-19 0 -25z m46 7 c-3 -9 -8 -14 -10 -11 -3 3 -2 9 2 15 9 16 15 13 8 -4z
m-789 -57 c3 -13 1 -27 -5 -33 -7 -7 -8 -4 -4 8 4 9 3 17 -2 17 -5 0 -10 7
-10 15 0 23 14 18 21 -7z m768 -10 c-7 -7 -12 -8 -12 -2 0 6 3 14 7 17 3 4 9
5 12 2 2 -3 -1 -11 -7 -17z m-709 -35 c-7 -2 -19 -2 -25 0 -7 3 -2 5 12 5 14
0 19 -2 13 -5z m690 -8 c-3 -9 -8 -14 -10 -11 -3 3 -2 9 2 15 9 16 15 13 8 -4z
m-709 -51 c10 -25 -1 -29 -14 -5 -6 12 -7 21 -1 21 5 0 12 -7 15 -16z m40 -10
c3 -8 2 -12 -3 -9 -6 3 -8 -13 -6 -37 1 -24 1 -37 -2 -30 -3 6 -9 10 -14 6 -5
-3 -9 -1 -9 5 0 5 4 12 9 16 6 3 8 19 6 35 -4 32 9 41 19 14z m626 -18 c0 -3
-4 -8 -10 -11 -5 -3 -10 -1 -10 4 0 6 5 11 10 11 6 0 10 -2 10 -4z m1 -60
c-11 -27 -24 -37 -16 -11 3 8 7 22 10 31 3 9 8 15 11 12 2 -3 0 -17 -5 -32z
m-54 -33 c-3 -10 -5 -4 -5 12 0 17 2 24 5 18 2 -7 2 -21 0 -30z m20 -28 c-16
-17 -17 -14 -10 14 4 15 8 19 13 10 5 -6 3 -18 -3 -24z m-542 -46 c10 -30 2
-32 -12 -3 -6 13 -7 24 -3 24 5 0 12 -9 15 -21z m-22 -19 c3 -11 1 -18 -4 -14
-5 3 -9 12 -9 20 0 20 7 17 13 -6z m36 -67 c-2 -31 -3 -33 -6 -10 -3 18 -9 25
-16 20 -7 -4 -6 0 2 10 19 24 21 22 20 -20z m18 15 c-3 -8 -6 -5 -6 6 -1 11 2
17 5 13 3 -3 4 -12 1 -19z m433 1 c0 -4 -5 -11 -10 -14 -6 -4 -8 -16 -4 -28 3
-12 3 -19 -1 -15 -14 14 -13 65 2 65 7 0 13 -4 13 -8z m26 -8 c0 -11 -5 -17
-10 -14 -5 4 -7 -1 -3 -10 3 -10 2 -17 -3 -17 -13 0 -13 16 0 41 13 24 16 24
16 0z m-41 -71 c3 -5 1 -10 -4 -10 -6 0 -11 5 -11 10 0 6 2 10 4 10 3 0 8 -4
11 -10z m-28 -46 c-3 -3 -12 -4 -19 -1 -8 3 -5 6 6 6 11 1 17 -2 13 -5z m-339
-36 c-2 -5 -8 -9 -13 -9 -5 0 -11 4 -13 9 -1 5 4 9 13 9 9 0 14 -4 13 -9z
m145 -5 c-7 -2 -19 -2 -25 0 -7 3 -2 5 12 5 14 0 19 -2 13 -5z m-66 -9 c-3 -3
-12 -4 -19 -1 -8 3 -5 6 6 6 11 1 17 -2 13 -5z"/>
</g>
</svg>
